<svg width="100" height="100" xmlns="http://www.w3.org/2000/svg">
 <!-- Created with SVG Editor - http://github.com/mzalive/SVG Editor/ -->
 <defs>
  <filter id="svg_13_blur">
   <feGaussianBlur stdDeviation="0.6" in="SourceGraphic"/>
  </filter>
  <filter id="svg_10_blur">
   <feGaussianBlur stdDeviation="0.2" in="SourceGraphic"/>
  </filter>
  <filter id="svg_14_blur">
   <feGaussianBlur stdDeviation="0.5" in="SourceGraphic"/>
  </filter>
 </defs>
 <g>
  <title>Layer 1</title>
 </g>
 <g>
  <title>background</title>
  <ellipse filter="url(#svg_14_blur)" stroke="#33666C" ry="37.86312" rx="39.626609" id="svg_14" cy="48.236514" cx="48.443984" stroke-width="null" fill="#A4FFFF"/>
  <line stroke-linecap="null" stroke-linejoin="null" id="svg_12" y2="72.092216" x2="79.411427" y1="72.092216" x1="17.525236" fill="none"/>
  <g filter="url(#svg_10_blur)" stroke="null" id="svg_10">
   <path fill="#B1FFFF" stroke="#33666C" id="svg_9" d="m48.375714,16.550835l3.738784,0l0,4.034543l3.738784,0l0,7.467939l13.085743,5.281217l0,25.579002l1.869392,0l0,2.017271l-44.865403,0l0,-2.017271l1.869392,0l0,-22.189986l11.216351,0l0,-16.138171l3.738784,0l0,-4.034543l3.738784,0l0,-4.034543l1.869392,0l0,4.034543zm5.608175,6.051814l-13.085743,0l0,36.310886l1.869392,0l0,-4.034543l9.346959,0l0,4.034543l1.869392,0l0,-36.310886zm-3.738784,34.293614l-5.608175,0l0,2.017271l5.608175,0l0,-2.017271zm14.955134,2.017271l1.869392,0l0,-24.181033l-11.216351,-4.52474l0,28.705772l1.869392,0l0,-4.034543l7.477567,0l0,4.034543zm-26.171485,-20.172714l-9.346959,0l0,20.172714l1.869392,0l0,-4.034543l5.608175,0l0,4.034543l1.869392,0l0,-20.172714zm-3.738784,18.155443l-1.869392,0l0,2.017271l1.869392,0l0,-2.017271zm28.040877,0l-3.738784,0l0,2.017271l3.738784,0l0,-2.017271zm-29.910269,-10.086357l0,4.034543l-1.869392,0l0,-4.034543l1.869392,0zm3.738784,0l0,4.034543l-1.869392,0l0,-4.034543l1.869392,0zm9.346959,-20.172714l0,24.207257l-1.869392,0l0,-24.207257l1.869392,0zm18.693918,22.189986l0,2.017271l-7.477567,0l0,-2.017271l7.477567,0zm-14.955134,-22.189986l0,24.207257l-1.869392,0l0,-24.207257l1.869392,0zm14.955134,18.155443l0,2.017271l-7.477567,0l0,-2.017271l7.477567,0zm-31.779661,-4.034543l0,4.034543l-1.869392,0l0,-4.034543l1.869392,0zm3.738784,0l0,4.034543l-1.869392,0l0,-4.034543l1.869392,0zm28.040877,0l0,2.017271l-7.477567,0l0,-2.017271l7.477567,0zm0,-4.034543l0,2.017271l-7.477567,0l0,-2.017271l7.477567,0zm-14.955134,-18.155443l-5.608175,0l0,2.017271l5.608175,0l0,-2.017271z"/>
  </g>
  <text style="cursor: move;" font-style="normal" font-weight="bold" filter="url(#svg_13_blur)" stroke="#B1FFFF" transform="matrix(0.3612307321849462,0,0,0.5076474360621824,108.09620524248481,45.930822158309205) " xml:space="preserve" text-anchor="start" font-family="Helvetica, Arial, sans-serif" font-size="24" id="svg_13" y="48.499506" x="-252.879981" stroke-width="0" fill="#12408e">MySweetHouse</text>
 </g>
</svg>